<?xml version="1.0" encoding="UTF-8" standalone="no"?>
<!-- Generator: Adobe Illustrator 17.0.1, SVG Export Plug-In . SVG Version: 6.00 Build 0)  -->

<svg
   xmlns:dc="http://purl.org/dc/elements/1.1/"
   xmlns:cc="http://creativecommons.org/ns#"
   xmlns:rdf="http://www.w3.org/1999/02/22-rdf-syntax-ns#"
   xmlns:svg="http://www.w3.org/2000/svg"
   xmlns="http://www.w3.org/2000/svg"
   xmlns:sodipodi="http://sodipodi.sourceforge.net/DTD/sodipodi-0.dtd"
   xmlns:inkscape="http://www.inkscape.org/namespaces/inkscape"
   version="1.1"
   x="0px"
   y="0px"
   width="86px"
   height="86px"
   viewBox="0 0 86 86"
   enable-background="new 0 0 86 86"
   xml:space="preserve"
   id="svg2"
   inkscape:version="0.48.4 r9939"
   sodipodi:docname="harbour-findjolla2.svg"
   inkscape:export-filename="/home/arto/uncrypted/coding/sailfish/sailfish-findmyjolla/harbour-findjolla.png"
   inkscape:export-xdpi="90"
   inkscape:export-ydpi="90"><metadata
     id="metadata27"><rdf:RDF><cc:Work
         rdf:about=""><dc:format>image/svg+xml</dc:format><dc:type
           rdf:resource="http://purl.org/dc/dcmitype/StillImage" /><dc:title></dc:title></cc:Work></rdf:RDF></metadata><defs
     id="defs25"><filter
       inkscape:collect="always"
       id="filter3812"><feGaussianBlur
         inkscape:collect="always"
         stdDeviation="1.0934059"
         id="feGaussianBlur3814" /></filter></defs><sodipodi:namedview
     pagecolor="#ffffff"
     bordercolor="#666666"
     borderopacity="1"
     objecttolerance="10"
     gridtolerance="10"
     guidetolerance="10"
     inkscape:pageopacity="0"
     inkscape:pageshadow="2"
     inkscape:window-width="1855"
     inkscape:window-height="1056"
     id="namedview23"
     showgrid="false"
     inkscape:zoom="15.55814"
     inkscape:cx="43"
     inkscape:cy="43"
     inkscape:window-x="65"
     inkscape:window-y="24"
     inkscape:window-maximized="1"
     inkscape:current-layer="Layer_1" /><g
     id="Layer_2"
     display="none" /><g
     id="Layer_1"><linearGradient
       id="SVGID_1_"
       gradientUnits="userSpaceOnUse"
       x1="0.7169"
       y1="85.2831"
       x2="85.2831"
       y2="0.7169"
       gradientTransform="translate(0.36440678,-0.17006803)"><stop
         offset="0"
         style="stop-color:#5642c0;stop-opacity:1;"
         id="stop7" /><stop
         offset="1"
         style="stop-color:#ffb4f7;stop-opacity:1;"
         id="stop9" /></linearGradient><path
       d="m 84.641407,0.12993197 h -41.277 c -23.583,0 -42.70000022,19.11800003 -42.70000022,42.70000003 v 41.277 c 0,0.786 0.63700002,1.423 1.42300002,1.423 H 43.364407 c 23.583,0 42.7,-19.118 42.7,-42.7 v -41.277 c 0,-0.78600003 -0.637,-1.42300003 -1.423,-1.42300003 z"
       id="path11"
       style="fill:url(#SVGID_1_)"
       inkscape:connector-curvature="0"
       inkscape:export-filename="/home/arto/uncrypted/coding/sailfish/findjolla/harbour-findjolla.png"
       inkscape:export-xdpi="90"
       inkscape:export-ydpi="90" /><g
       id="g13" /><path
       sodipodi:type="spiral"
       style="fill:none;stroke:#000000;stroke-width:2.9;stroke-linecap:butt;stroke-linejoin:miter;stroke-opacity:1;filter:url(#filter3812);stroke-miterlimit:4;stroke-dasharray:none"
       id="path3772"
       sodipodi:cx="35.89407"
       sodipodi:cy="36.987289"
       sodipodi:expansion="1"
       sodipodi:revolution="3"
       sodipodi:radius="35.182243"
       sodipodi:argument="-17.891182"
       sodipodi:t0="0"
       d="m 35.89407,36.987289 c 1.014027,1.443392 -1.445379,2.079007 -2.399013,1.68538 -2.584289,-1.066705 -2.414799,-4.58597 -0.971747,-6.483404 2.581282,-3.394066 7.667796,-2.95579 10.567797,-0.258115 4.255868,3.958948 3.520956,10.794371 -0.455518,14.652189 -5.300016,5.141865 -13.937217,4.096912 -18.736582,-1.169151 -6.03951,-6.626802 -4.678546,-17.087912 1.882784,-22.820973 7.946651,-6.943506 20.243047,-5.26349 26.905366,2.596416 7.851312,9.262628 5.850512,23.400952 -3.31005,30.989758 C 38.800877,64.940966 22.816401,62.61831 14.302958,52.155707 4.6294423,40.267432 7.2746574,22.433947 19.040272,12.997165 32.239514,2.4105211 51.924031,5.3787829 62.283207,18.448112 c 11.500648,14.509434 8.208989,36.04647 -6.164581,47.327327"
       transform="translate(4.3644068,5.1011184)" /></g></svg>